<svg width="69" height="59" viewBox="0 0 69 59" fill="none" xmlns="http://www.w3.org/2000/svg">
<path d="M24.9031 13.6483C25.1239 13.2076 25.4723 12.8432 25.9032 12.6024C26.3341 12.3616 26.8276 12.2556 27.3196 12.298C27.8117 12.3404 28.2796 12.5293 28.6628 12.8402C29.0459 13.1511 29.3265 13.5696 29.4682 14.0415L35.0745 32.6858L39.695 23.4804C39.8997 23.0722 40.2143 22.7289 40.6036 22.4889C40.9929 22.249 41.4414 22.1219 41.899 22.1219C42.3566 22.1219 42.8052 22.249 43.1945 22.4889C43.5837 22.7289 43.8983 23.0722 44.103 23.4804L48.3447 31.9545H63.2474C65.4663 27.3917 66.592 22.3771 66.5357 17.3061C66.4387 7.76432 58.764 0 49.4274 0C42.0207 0 37.106 4.53815 34.5 7.83499C31.9002 4.53354 26.9793 0 19.5726 0C10.236 0 2.56132 7.76432 2.46429 17.3061C2.42446 20.6011 2.88825 23.8828 3.83967 27.0384H18.191L24.9031 13.6483Z" fill="#00C2FF"/>
<path d="M44.6174 35.5125L41.8929 30.0772L36.704 40.4286C36.4992 40.8367 36.1846 41.1799 35.7953 41.4198C35.4061 41.6597 34.9576 41.7867 34.5 41.7866C34.4312 41.7866 34.3604 41.7836 34.2875 41.7774C33.7942 41.7366 33.3247 41.5486 32.9401 41.2379C32.5555 40.9271 32.2737 40.5081 32.1312 40.0353L26.525 21.3911L21.9044 30.5964C21.7007 31.0025 21.3883 31.3443 21.0017 31.584C20.6151 31.8237 20.1695 31.952 19.7143 31.9545H5.75257C7.19007 34.9543 9.10348 37.907 11.4928 40.8126C14.3837 44.3276 19.625 49.9473 31.7292 58.1433C32.5455 58.7014 33.5119 59 34.5015 59C35.4911 59 36.4576 58.7014 37.2739 58.1433C49.3781 49.9473 54.6194 44.3276 57.5103 40.8126C58.5515 39.5485 59.5282 38.2328 60.4366 36.8706H46.8214C46.3639 36.8706 45.9153 36.7436 45.5261 36.5037C45.1368 36.2639 44.8222 35.9206 44.6174 35.5125Z" fill="#00C2FF"/>
<path d="M66.5357 31.9545L63.2474 31.9545C62.4282 33.6574 61.4889 35.3002 60.4366 36.8706H66.5357C67.1893 36.8706 67.8161 36.6116 68.2782 36.1506C68.7404 35.6897 69 35.0644 69 34.4125C69 33.7606 68.7404 33.1354 68.2782 32.6744C67.8161 32.2135 67.1893 31.9545 66.5357 31.9545Z" fill="#00C2FF"/>
<path d="M2.46429 27.0384C1.81072 27.0384 1.18392 27.2974 0.721772 27.7584C0.259629 28.2193 0 28.8445 0 29.4965C0 30.1484 0.259629 30.7736 0.721772 31.2345C1.18392 31.6955 1.81072 31.9545 2.46429 31.9545H5.75257C4.99049 30.3667 4.351 28.7233 3.83967 27.0384L2.46429 27.0384Z" fill="#00C2FF"/>
</svg>
