<svg width="27" height="20" viewBox="0 0 27 20" fill="none" xmlns="http://www.w3.org/2000/svg">
<path d="M4.02935 4.84803e-06L22.9707 6.50393e-06C23.7184 -0.00107292 24.4512 0.209005 25.0842 0.605927C25.7172 1.00285 26.2246 1.57038 26.5475 2.24283C26.9255 3.0407 27.0711 3.92839 26.9676 4.80475C26.8642 5.6811 26.516 6.51087 25.9626 7.19949L16.4919 18.6379C16.1203 19.0655 15.6607 19.4084 15.1445 19.6434C14.6283 19.8784 14.0675 20 13.5 20C12.9325 20 12.3717 19.8784 11.8555 19.6434C11.3393 19.4084 10.8797 19.0655 10.5081 18.6379L1.03742 7.19948C0.484017 6.51086 0.135766 5.6811 0.0323564 4.80474C-0.0710534 3.92839 0.0745407 3.0407 0.452541 2.24283C0.775447 1.57038 1.28276 1.00285 1.91576 0.605925C2.54876 0.209003 3.28156 -0.0010747 4.02935 4.84803e-06ZM22.4982 4.48566L4.72671 4.48566L13.5 15.2961L22.4982 4.48566Z" fill="#FAFAFA"/>
</svg>
