<svg width="12" height="22" viewBox="0 0 12 22" fill="none" xmlns="http://www.w3.org/2000/svg">
<path d="M0.458879 0.962242C0.16506 1.2583 9.02978e-07 1.6598 8.84679e-07 2.07843C8.6638e-07 2.49706 0.16506 2.89856 0.458879 3.19462L8.21692 11.0095L0.458879 18.8244C0.173386 19.1222 0.0154125 19.521 0.0189839 19.9349C0.0225545 20.3489 0.187384 20.7449 0.47797 21.0376C0.768557 21.3303 1.16165 21.4963 1.57259 21.4999C1.98352 21.5035 2.37942 21.3444 2.67501 21.0568L11.5411 12.1257C11.8349 11.8297 12 11.4282 12 11.0095C12 10.5909 11.8349 10.1894 11.5411 9.89334L2.67501 0.962242C2.38111 0.666268 1.98253 0.5 1.56695 0.5C1.15136 0.5 0.752788 0.666268 0.458879 0.962242Z" fill="#FAFAFA"/>
</svg>
