<svg width="49" height="49" viewBox="0 0 49 49" fill="none" xmlns="http://www.w3.org/2000/svg">
<path d="M46.8991 33.5744L35.0887 28.2817C34.5536 28.0524 33.9697 27.9602 33.39 28.0135C32.8103 28.0668 32.253 28.2638 31.7686 28.5867C31.7194 28.6183 31.6726 28.6534 31.6286 28.6917L25.4559 33.9419C25.3918 33.9768 25.3205 33.9964 25.2476 33.999C25.1747 34.0016 25.1022 33.9872 25.0359 33.9569C21.0682 32.0419 16.9581 27.9567 15.0355 24.0441C15.0035 23.9787 14.9869 23.9069 14.9869 23.8341C14.9869 23.7613 15.0035 23.6894 15.0355 23.6241L20.3032 17.3738C20.341 17.3276 20.3761 17.2792 20.4082 17.2288C20.7267 16.7426 20.9191 16.1846 20.968 15.6054C21.0168 15.0262 20.9207 14.444 20.6882 13.9112L15.433 2.12077C15.1346 1.42477 14.6185 0.844327 13.9621 0.46657C13.3058 0.0888123 12.5447 -0.0658865 11.7929 0.0256909C8.52588 0.455198 5.527 2.05961 3.3567 4.53911C1.1864 7.0186 -0.00681943 10.2035 2.93194e-05 13.4987C2.93194e-05 33.0744 15.9256 49 35.5012 49C38.7962 49.0063 41.9808 47.8129 44.4602 45.6427C46.9396 43.4725 48.5442 40.4739 48.9742 37.207C49.0656 36.4588 48.913 35.7011 48.5391 35.0466C48.1652 34.3921 47.59 33.8757 46.8991 33.5744ZM35.5012 45.9999C17.5806 45.9999 3.00013 31.4193 3.00013 13.4987C2.99177 10.9334 3.91767 8.45285 5.60483 6.52045C7.29199 4.58806 9.62499 3.33603 12.1679 2.9983H12.2254C12.3262 3.00018 12.424 3.03246 12.5061 3.0909C12.5882 3.14934 12.6507 3.23123 12.6855 3.32581L17.9606 15.1037C17.9907 15.1692 18.0063 15.2404 18.0063 15.3125C18.0063 15.3846 17.9907 15.4558 17.9606 15.5213L12.683 21.7865C12.6436 21.8312 12.6076 21.8788 12.5755 21.929C12.2452 22.4332 12.0507 23.014 12.0109 23.6154C11.971 24.2168 12.0871 24.8183 12.3479 25.3616C14.5655 29.9018 19.1407 34.4419 23.7308 36.6595C24.2773 36.9189 24.8817 37.0322 25.4851 36.9884C26.0884 36.9446 26.6701 36.7451 27.1734 36.4095C27.2209 36.377 27.2684 36.342 27.3134 36.3045L33.4837 31.0543C33.5446 31.0216 33.6119 31.0024 33.6809 30.9981C33.75 30.9938 33.8191 31.0044 33.8837 31.0293L45.6966 36.322C45.7931 36.3631 45.8742 36.4335 45.9285 36.5232C45.9828 36.613 46.0075 36.7175 45.9991 36.822C45.6631 39.3662 44.4123 41.7009 42.4803 43.3899C40.5483 45.079 38.0674 46.0068 35.5012 45.9999Z" fill="#00C2FF"/>
</svg>
