<svg width="11" height="11" viewBox="0 0 11 11" fill="none" xmlns="http://www.w3.org/2000/svg">
<path d="M6.61497 0.766046C6.62991 0.710205 6.6557 0.657854 6.69087 0.611985C6.72605 0.566115 6.76992 0.527626 6.81997 0.498716C6.87003 0.469807 6.92529 0.451043 6.9826 0.443498C7.03991 0.435953 7.09815 0.439774 7.15398 0.454743C7.96968 0.667567 8.7139 1.09398 9.30999 1.69007C9.90609 2.28617 10.3325 3.03038 10.5453 3.84608C10.5603 3.90191 10.5641 3.96014 10.5566 4.01745C10.549 4.07476 10.5303 4.13002 10.5014 4.18008C10.4725 4.23013 10.434 4.274 10.3881 4.30918C10.3422 4.34435 10.2899 4.37015 10.234 4.38508C10.1969 4.39484 10.1586 4.39983 10.1202 4.39993C10.0232 4.39993 9.92897 4.3679 9.85209 4.30882C9.77521 4.24974 9.71999 4.16692 9.69502 4.07323C9.52145 3.40735 9.17343 2.79981 8.68684 2.31322C8.20026 1.82664 7.59271 1.47863 6.92682 1.30505C6.87093 1.29017 6.81852 1.26442 6.77259 1.22927C6.72666 1.19412 6.68811 1.15026 6.65915 1.1002C6.63018 1.05014 6.61137 0.994861 6.60379 0.937523C6.59621 0.880185 6.60001 0.821915 6.61497 0.766046ZM6.48682 3.06507C7.24528 3.26747 7.73259 3.75477 7.93499 4.51323C7.95996 4.60692 8.01517 4.68974 8.09206 4.74882C8.16894 4.8079 8.26319 4.83993 8.36015 4.83994C8.39858 4.83984 8.43683 4.83485 8.474 4.82509C8.52984 4.81015 8.58219 4.78436 8.62806 4.74918C8.67393 4.71401 8.71242 4.67014 8.74133 4.62008C8.77024 4.57003 8.78901 4.51477 8.79655 4.45746C8.8041 4.40015 8.80027 4.34191 8.78531 4.28608C8.5037 3.23227 7.76779 2.49636 6.71397 2.21476C6.65814 2.19984 6.59991 2.19607 6.54262 2.20366C6.48533 2.21125 6.4301 2.23004 6.38007 2.25897C6.33005 2.28791 6.28621 2.32641 6.25106 2.37228C6.21592 2.41816 6.19015 2.47051 6.17524 2.52634C6.16032 2.58217 6.15655 2.64039 6.16414 2.69768C6.17172 2.75497 6.19052 2.81021 6.21945 2.86023C6.24838 2.91026 6.28689 2.9541 6.33276 2.98924C6.37864 3.02439 6.43098 3.05015 6.48682 3.06507ZM10.9936 8.30937C10.8955 9.05464 10.5295 9.73873 9.96392 10.2339C9.39833 10.729 8.67184 11.0013 7.92014 11C3.55307 11 4.97684e-06 7.44696 4.97684e-06 3.07992C-0.00134254 2.32822 0.270988 1.60174 0.766131 1.03615C1.26128 0.470566 1.94537 0.104558 2.69065 0.00648876C2.87911 -0.0165229 3.06996 0.022033 3.23471 0.116401C3.39946 0.210769 3.52927 0.355888 3.60477 0.530094L4.76639 3.12337V3.12997C4.82419 3.26332 4.84806 3.40891 4.83587 3.55374C4.82368 3.69856 4.77581 3.83811 4.69654 3.95993C4.68664 3.97478 4.67619 3.98853 4.66519 4.00228L3.52007 5.35969C3.93202 6.1968 4.80764 7.06471 5.65575 7.47776L6.99447 6.3387C7.00762 6.32765 7.02139 6.31737 7.03573 6.3079C7.15744 6.22672 7.29747 6.17717 7.44316 6.16372C7.58884 6.15028 7.73557 6.17337 7.87009 6.2309L7.87724 6.2342L10.4683 7.39526C10.6428 7.47049 10.7883 7.60018 10.883 7.76495C10.9777 7.92972 11.0165 8.12072 10.9936 8.30937ZM10.1202 8.19937H10.1141L7.52908 7.04161L6.18981 8.18067C6.17682 8.19167 6.16323 8.20196 6.14911 8.21147C6.02247 8.29595 5.87609 8.34614 5.72425 8.35713C5.57242 8.36812 5.42033 8.33954 5.28285 8.27417C4.25268 7.77641 3.22581 6.75725 2.7275 5.73809C2.66152 5.60161 2.63191 5.4504 2.64154 5.29911C2.65118 5.14783 2.69973 5.00159 2.7825 4.87459C2.79183 4.85967 2.80231 4.84551 2.81385 4.83224L3.96007 3.47317L2.80505 0.888147C2.80484 0.885953 2.80484 0.883742 2.80505 0.881547C2.27168 0.951122 1.78197 1.21274 1.42762 1.61741C1.07326 2.02207 0.878579 2.54204 0.88002 3.07992C0.882058 4.94643 1.62444 6.73592 2.94427 8.05575C4.26411 9.37557 6.05361 10.1179 7.92014 10.12C8.4577 10.1218 8.97752 9.92783 9.38243 9.57425C9.78733 9.22067 10.0496 8.73227 10.1202 8.19937Z" fill="#00C2FF"/>
</svg>
