<svg width="19" height="20" viewBox="0 0 19 20" fill="none" xmlns="http://www.w3.org/2000/svg">
<rect y="0.5" width="19" height="19" rx="9.5" fill="#00C2FF"/>
<path d="M14.9203 7.39728L8.32661 13.9601C8.26918 14.0174 8.20094 14.0629 8.1258 14.094C8.05066 14.125 7.9701 14.141 7.88874 14.141C7.80739 14.141 7.72683 14.125 7.65169 14.094C7.57655 14.0629 7.50831 14.0174 7.45088 13.9601L4.56613 11.0888C4.50863 11.0316 4.46302 10.9637 4.4319 10.8889C4.40078 10.8141 4.38477 10.734 4.38477 10.653C4.38477 10.5721 4.40078 10.492 4.4319 10.4172C4.46302 10.3424 4.50863 10.2745 4.56613 10.2172C4.62364 10.16 4.6919 10.1146 4.76703 10.0836C4.84216 10.0526 4.92268 10.0367 5.004 10.0367C5.08532 10.0367 5.16584 10.0526 5.24097 10.0836C5.3161 10.1146 5.38436 10.16 5.44186 10.2172L7.88926 12.6532L14.0456 6.52668C14.1617 6.4111 14.3193 6.34616 14.4835 6.34616C14.6477 6.34616 14.8052 6.4111 14.9213 6.52668C15.0375 6.64226 15.1027 6.79903 15.1027 6.96249C15.1027 7.12595 15.0375 7.28272 14.9213 7.3983L14.9203 7.39728Z" fill="#FAFAFA" stroke="#FAFAFA"/>
</svg>
