<svg width="49" height="49" viewBox="0 0 49 49" fill="none" xmlns="http://www.w3.org/2000/svg">
<path d="M24.5 44.1C29.6982 44.1 34.6836 42.035 38.3593 38.3593C42.035 34.6836 44.1 29.6982 44.1 24.5C44.1 19.3018 42.035 14.3164 38.3593 10.6407C34.6836 6.96499 29.6982 4.9 24.5 4.9C19.3018 4.9 14.3164 6.96499 10.6407 10.6407C6.96499 14.3164 4.9 19.3018 4.9 24.5C4.9 29.6982 6.96499 34.6836 10.6407 38.3593C14.3164 42.035 19.3018 44.1 24.5 44.1ZM24.5 0C27.7174 0 30.9033 0.633711 33.8757 1.86495C36.8482 3.09619 39.5491 4.90085 41.8241 7.17588C44.0992 9.45092 45.9038 12.1518 47.1351 15.1243C48.3663 18.0967 49 21.2826 49 24.5C49 30.9978 46.4188 37.2295 41.8241 41.8241C37.2295 46.4188 30.9978 49 24.5 49C10.9515 49 0 37.975 0 24.5C0 18.0022 2.58124 11.7705 7.17588 7.17588C11.7705 2.58124 18.0022 0 24.5 0ZM25.725 12.25V25.1125L36.75 31.654L34.9125 34.6675L22.05 26.95V12.25H25.725Z" fill="#00C2FF"/>
</svg>
