<svg width="38" height="38" viewBox="0 0 38 38" fill="none" xmlns="http://www.w3.org/2000/svg">
<path d="M18.814 5.44087L24.0519 8.23038L21.2725 13.4873L16.0346 10.6978L18.814 5.44087Z" fill="#00C2FF"/>
<path d="M20.0184 3.16287C21.5534 0.259545 25.1429 -0.845158 28.0357 0.695449L24.0519 8.23038L18.814 5.44087L20.0184 3.16287Z" fill="#00C2FF"/>
<path d="M16.0346 10.6978L21.2725 13.4873L18.4931 18.7442L13.2552 15.9547L16.0346 10.6978Z" fill="#00C2FF"/>
<path d="M13.2552 15.9547L18.4931 18.7442L15.7137 24.0012L10.4758 21.2117L13.2552 15.9547Z" fill="#00C2FF"/>
<path d="M10.4758 21.2117L15.7137 24.0012L12.9342 29.2581L7.69636 26.4686L10.4758 21.2117Z" fill="#00C2FF"/>
<path d="M7.69636 26.4686L12.9342 29.2581L10.1548 34.515L4.91693 31.7255L7.69636 26.4686Z" fill="#00C2FF"/>
<path d="M4.91693 31.7255L10.1548 34.515C8.61979 37.4184 5.03035 38.5231 2.13755 36.9825L4.91693 31.7255Z" fill="#00C2FF"/>
<path d="M18.4931 18.7442L23.7309 21.5338L20.9515 26.7907L15.7137 24.0012L18.4931 18.7442Z" fill="#00C2FF"/>
<path d="M18.814 5.44087L13.5761 2.65135L10.7967 7.90828L16.0346 10.6978L18.814 5.44087Z" fill="#FF7A00"/>
<path d="M21.2725 13.4873L26.5103 16.2768L29.2897 11.0199L24.0519 8.23038L21.2725 13.4873Z" fill="#FF7A00"/>
<path d="M23.7309 21.5338L28.9688 24.3233L26.1894 29.5802L20.9515 26.7907L23.7309 21.5338Z" fill="#00C2FF"/>
<path d="M13.5761 2.65135C10.6833 1.11074 7.09384 2.21544 5.55881 5.11877L10.7967 7.90828L13.5761 2.65135Z" fill="#FF7A00"/>
<path d="M26.5103 16.2768C29.4031 17.8174 32.9926 16.7127 34.5276 13.8094L29.2897 11.0199L26.5103 16.2768Z" fill="#FF7A00"/>
<path d="M20.9515 26.7907L26.1894 29.5802L23.41 34.8371L18.1721 32.0476L20.9515 26.7907Z" fill="#00C2FF"/>
<path d="M10.7967 7.90828L5.55881 5.11877L2.77943 10.3757L8.01732 13.1652L10.7967 7.90828Z" fill="#FF7A00"/>
<path d="M29.2897 11.0199L34.5276 13.8094L37.3071 8.55248L32.0692 5.76297L29.2897 11.0199Z" fill="#FF7A00"/>
<path d="M18.1721 32.0476L23.41 34.8371C21.875 37.7405 18.2855 38.8452 15.3927 37.3046L18.1721 32.0476Z" fill="#00C2FF"/>
<path d="M8.01732 13.1652L2.77943 10.3757L0 15.6326C2.8928 17.1732 6.48229 16.0685 8.01732 13.1652Z" fill="#FF7A00"/>
<path d="M32.0692 5.76297L37.3071 8.55248C38.8421 5.64916 37.7414 2.04664 34.8486 0.506032L32.0692 5.76297Z" fill="#FF7A00"/>
</svg>
