<svg width="19" height="18" viewBox="0 0 19 18" fill="none" xmlns="http://www.w3.org/2000/svg">
<path d="M9.5 9C8.19375 9 7.07552 8.58385 6.14531 7.75156C5.2151 6.91927 4.75 5.91875 4.75 4.75C4.75 3.58125 5.2151 2.58073 6.14531 1.74844C7.07552 0.916146 8.19375 0.5 9.5 0.5C10.8062 0.5 11.9245 0.916146 12.8547 1.74844C13.7849 2.58073 14.25 3.58125 14.25 4.75C14.25 5.91875 13.7849 6.91927 12.8547 7.75156C11.9245 8.58385 10.8062 9 9.5 9ZM0 17.5V14.525C0 13.9229 0.173375 13.3694 0.520125 12.8643C0.866875 12.3593 1.32683 11.9743 1.9 11.7094C3.12708 11.1604 4.37396 10.7485 5.64062 10.4737C6.90729 10.1989 8.19375 10.0618 9.5 10.0625C10.8062 10.0625 12.0927 10.1999 13.3594 10.4747C14.626 10.7496 15.8729 11.1611 17.1 11.7094C17.674 11.975 18.1343 12.3603 18.4811 12.8654C18.8278 13.3704 19.0008 13.9236 19 14.525V17.5H0ZM2.375 15.375H16.625V14.525C16.625 14.3302 16.5704 14.1531 16.4611 13.9938C16.3519 13.8344 16.2086 13.7104 16.0312 13.6219C14.9625 13.1438 13.8839 12.7853 12.7953 12.5466C11.7068 12.3079 10.6083 12.1882 9.5 12.1875C8.39167 12.1875 7.29323 12.3072 6.20469 12.5466C5.11615 12.786 4.0375 13.1445 2.96875 13.6219C2.79062 13.7104 2.64694 13.8344 2.53769 13.9938C2.42844 14.1531 2.37421 14.3302 2.375 14.525V15.375ZM9.5 6.875C10.1531 6.875 10.7124 6.66675 11.1779 6.25025C11.6434 5.83375 11.8758 5.33367 11.875 4.75C11.875 4.16563 11.6422 3.66519 11.1767 3.24869C10.7112 2.83219 10.1523 2.62429 9.5 2.625C8.84687 2.625 8.28756 2.83325 7.82206 3.24975C7.35656 3.66625 7.12421 4.16633 7.125 4.75C7.125 5.33437 7.35775 5.83481 7.82325 6.25131C8.28875 6.66781 8.84767 6.87571 9.5 6.875Z" fill="#00C2FF"/>
</svg>
