<svg width="59" height="59" viewBox="0 0 59 59" fill="none" xmlns="http://www.w3.org/2000/svg">
<path fill-rule="evenodd" clip-rule="evenodd" d="M5.9 29.5C5.9 23.367 8.2718 17.7913 12.1186 13.5905C11.9298 14.9386 11.8 16.3017 11.8 17.7C11.8 33.9929 25.0072 47.2 41.3 47.2C42.6983 47.2 44.0612 47.0705 45.4094 46.8817C41.2086 50.7285 35.633 53.1 29.5 53.1C16.4876 53.1 5.9 42.5125 5.9 29.5ZM50.7164 39.7688C50.5276 39.698 50.3358 39.6395 50.15 39.5628C41.5124 36.0523 35.4 27.5825 35.4 17.7C35.4 14.0155 36.2732 10.5405 37.7836 7.43118C46.7162 10.7942 53.1 19.4051 53.1 29.5C53.1 32.9574 52.3359 36.2323 50.9937 39.1941C50.9052 39.3888 50.8079 39.5771 50.7164 39.7688ZM31.9131 6.02388C30.3643 9.60518 29.5 13.5523 29.5 17.7C29.5 27.3642 34.1698 35.4 41.3501 41.3H41.3C28.2876 41.3 17.7 30.7125 17.7 17.7C17.7 14.2426 18.467 10.9677 19.8063 8.00591C22.7681 6.66366 26.0426 5.9 29.5 5.9C30.3142 5.9 31.1195 5.94128 31.9131 6.02388ZM0 29.5C0 45.7929 13.2072 59 29.5 59C39.3825 59 48.1086 54.1233 53.4629 46.6627C54.165 45.6833 54.8287 44.6754 55.4099 43.6105C55.8406 42.8228 56.23 42.008 56.5869 41.1761C57.6135 38.8014 58.3097 36.2586 58.6814 33.6095C58.8702 32.2614 59 30.8983 59 29.5C59 17.3224 51.6191 6.87704 41.0935 2.37239C39.173 1.54934 37.1434 0.93848 35.0371 0.53728C33.2435 0.19508 31.3939 0 29.5 0C28.1017 0 26.7388 0.129535 25.3906 0.318335C21.8152 0.819835 18.4345 1.9287 15.3901 3.58955C6.22154 8.59275 0 18.3195 0 29.5Z" fill="#00C2FF"/>
</svg>
