<svg width="46" height="28" viewBox="0 0 46 28" fill="none" xmlns="http://www.w3.org/2000/svg">
<path id="vk" d="M43.6896 27.4978H38.7646C36.9012 27.4978 36.3398 25.9735 32.9996 22.5978C30.0804 19.7563 28.8476 19.4031 28.1091 19.4031C27.0879 19.4031 26.8093 19.6866 26.8093 21.1062V25.581C26.8093 26.7913 26.4207 27.5 23.2899 27.5C20.2526 27.2939 17.3072 26.362 14.6964 24.781C12.0856 23.2 9.88396 21.0152 8.27296 18.4065C4.44777 13.5981 1.78623 7.95458 0.5 1.92477C0.5 1.17897 0.78069 0.502959 2.18846 0.502959H7.11134C8.3766 0.502959 8.83218 1.07212 9.32879 2.38708C11.719 9.4918 15.7976 15.6719 17.4537 15.6719C18.0885 15.6719 18.3649 15.3884 18.3649 13.79V6.47153C18.1554 3.13288 16.4 2.85157 16.4 1.64346C16.4222 1.32474 16.5666 1.0273 16.8024 0.814348C17.0383 0.601391 17.347 0.489685 17.6631 0.502959H25.4016C26.4595 0.502959 26.8093 1.03505 26.8093 2.31294V12.1915C26.8093 13.2579 27.2627 13.6111 27.5823 13.6111C28.2171 13.6111 28.7051 13.2579 29.8688 12.0846C32.3634 9.01201 34.4015 5.58871 35.9188 1.92259C36.0741 1.48243 36.3677 1.10565 36.7548 0.849727C37.1419 0.593806 37.6013 0.47279 38.0628 0.505139H42.9879C44.4647 0.505139 44.7778 1.25094 44.4647 2.31512C42.6734 6.36776 40.457 10.2147 37.8534 13.79C37.3223 14.6077 37.1107 15.0329 37.8534 15.9925C38.3414 16.7383 40.0687 18.195 41.2282 19.5797C42.9166 21.2806 44.3179 23.2476 45.3781 25.4022C45.8013 26.7891 45.0952 27.4978 43.6896 27.4978Z" fill="#A1A1A1"/>
</svg>
