<svg width="93" height="59" viewBox="0 0 93 59" fill="none" xmlns="http://www.w3.org/2000/svg">
<path d="M81.6195 34.8266L63.0486 51.6818C60.1673 54.2924 57.1131 54.7532 55.7535 54.8178H20.3657C17.59 54.8178 14.6652 53.7924 14.4016 53.6998C13.5382 53.2828 12.6264 52.7897 11.7067 52.2C1.56965 45.7173 4.612 33.3423 5.10624 31.5755C5.11752 31.5462 5.12316 31.5194 5.13299 31.4885C5.15627 31.4028 5.17521 31.3439 5.17521 31.3439L5.17232 31.3425C7.35185 24.4526 12.4886 19.432 22.1559 19.1406C23.3638 19.1631 26.8615 19.448 29.9727 21.8019C30.7391 22.4262 31.5033 23.1585 32.2535 24.0439C33.737 25.9581 37.1786 31.5306 35.6113 37.9737C34.3487 42.1981 32.5171 44.0238 29.9916 45.723C27.4635 47.4236 22.4513 48.9895 17.7413 46.1133C14.9978 44.2387 12.9062 41.0211 13.2964 36.7519C13.6895 32.4841 18.0921 29.3959 22.0131 30.3102C25.937 31.223 28.2479 37.099 24.0176 39.4512C22.025 40.2966 20.8206 39.7953 20.0318 38.7167L20.0304 38.7223C20.0304 38.7223 18.8956 37.6677 17.4571 38.3193C16.0321 38.9681 16.4898 40.9918 16.4967 41.0269C18.0506 43.3076 21.0358 45.0139 25.5108 43.4369C26.5415 43.0745 27.3811 42.5071 28.0792 41.8218H28.0897C28.0897 41.8218 28.1587 41.7516 28.2536 41.6503C28.4047 41.4931 28.5488 41.3245 28.6859 41.1533C30.2263 39.2574 33.8416 33.5543 28.0897 27.1131C24.7346 24.428 14.3488 21.5462 10.0089 33.1118C9.84777 33.4939 9.70375 33.8856 9.57853 34.3001C9.55814 34.359 9.5363 34.4053 9.51664 34.4644C9.52083 34.4673 9.52083 34.4644 9.52372 34.4673C8.76154 37.0864 8.76444 40.284 10.333 43.8498C13.8202 51.7732 23.8868 53.9022 31.21 49.9868C32.5374 49.2777 33.7383 48.4 34.8056 47.3915L34.7993 47.4L52.4957 33.5363C52.4957 33.5363 53.7331 32.4211 55.6314 32.4211H81.5834C84.1071 32.4195 81.9178 34.5473 81.6195 34.8266ZM35.512 7.95641C35.597 7.90644 48.3515 0.566578 55.1742 9.21181C56.0742 10.4561 57.0191 11.9727 57.7475 13.618C57.8178 13.8555 59.7976 20.9292 56.5198 24.5735C56.4874 24.6051 56.4636 24.6424 56.4313 24.6725C56.3582 24.7518 56.2655 24.8178 56.1894 24.8902C55.9027 25.1583 55.5989 25.4267 55.2585 25.6821L40.9981 36.3265C41.3405 30.1333 38.7967 23.945 37.5095 21.8855C34.2135 17.1227 29.5655 15.5455 26.7187 15.0203C25.8314 14.8652 24.17 14.8363 24.17 14.8363L35.512 7.95641ZM90.6471 28.2663H88.8473H60.4009C59.3534 28.2663 60.4009 27.3002 60.4009 27.3002L60.3896 27.2973C60.8678 26.8569 61.2418 26.4504 61.5146 26.1408C66.3433 19.7776 62.2276 10.3024 61.596 8.94305C59.3392 4.97859 56.5943 2.79966 53.8396 1.68955C53.6258 1.61012 53.4178 1.53849 53.1689 1.43047C51.9272 0.973249 50.4788 0.535096 48.8787 0.205831C41.869 -0.839585 35.2271 2.43588 35.1694 2.46491C29.1089 5.92031 13.6511 15.0037 6.74975 21.5865C6.41298 21.9018 6.08184 22.2283 5.76055 22.5745C5.50736 22.8421 5.27397 23.1012 5.05534 23.3568C4.99765 23.4277 4.93576 23.4895 4.88095 23.5611C4.67635 23.8117 4.48519 24.0576 4.315 24.2963L4.36141 24.276C3.00942 26.1227 1.90338 28.3141 1.22218 30.965C-0.966466 37.8505 1.38326 53.2267 14.3472 58.076C14.9216 58.2655 17.4281 59 21.1938 59H54.9842H56.6983C57.9287 58.9523 60.8773 58.5507 63.7107 56.0284C63.7107 56.0255 63.7107 56.0255 63.7149 56.0228L90.1378 32.424L90.8942 31.7484C94.6461 28.3926 90.6471 28.2663 90.6471 28.2663Z" fill="#00C2FF"/>
</svg>
