<svg width="43" height="30" viewBox="0 0 43 30" fill="none" xmlns="http://www.w3.org/2000/svg">
<path id="youtube" d="M17.3 21.4286L28.199 15L17.3 8.57143V21.4286ZM41.576 4.65C41.849 5.65714 42.038 7.00714 42.164 8.72143C42.311 10.4357 42.374 11.9143 42.374 13.2L42.5 15C42.5 19.6929 42.164 23.1429 41.576 25.35C41.051 27.2786 39.833 28.5214 37.943 29.0571C36.956 29.3357 35.15 29.5286 32.378 29.6571C29.648 29.8071 27.149 29.8714 24.839 29.8714L21.5 30C12.701 30 7.22 29.6571 5.057 29.0571C3.167 28.5214 1.949 27.2786 1.424 25.35C1.151 24.3429 0.962 22.9929 0.836 21.2786C0.689 19.5643 0.626 18.0857 0.626 16.8L0.5 15C0.5 10.3071 0.836 6.85714 1.424 4.65C1.949 2.72143 3.167 1.47857 5.057 0.942857C6.044 0.664286 7.85 0.471428 10.622 0.342857C13.352 0.192857 15.851 0.128571 18.161 0.128571L21.5 0C30.299 0 35.78 0.342857 37.943 0.942857C39.833 1.47857 41.051 2.72143 41.576 4.65Z" fill="#A1A1A1"/>
</svg>
