<svg width="63" height="59" viewBox="0 0 63 59" fill="none" xmlns="http://www.w3.org/2000/svg">
<path fill-rule="evenodd" clip-rule="evenodd" d="M61.0321 0.0656534C60.7507 0.161912 27.5774 7.92348 27.5774 7.92348C26.4891 8.18868 25.6095 8.80356 25.6095 9.88794V37.3943C21.4749 34.7108 14.8292 34.7147 8.90183 37.8618C1.41782 41.8359 -2.02013 49.238 1.21907 54.4006C4.46024 59.5612 13.1525 60.5238 20.6345 56.5517C25.4579 53.9901 28.7877 49.1398 29.5453 45.2482C29.6772 44.983 29.5453 11.3908 29.5453 11.3908L59.0642 4.45619V29.5365C54.9296 26.853 48.2839 26.8569 42.3565 30.004C34.8725 33.9781 31.4346 41.3801 34.6738 46.5427C37.9149 51.7034 46.6072 52.666 54.0892 48.6939C58.9126 46.1322 62.2423 41.2819 63 37.3903V2.03011C63 0.943766 62.1203 -0.3017 61.0321 0.0656534Z" fill="#00C2FF"/>
</svg>
